HIERARCHY
ROOT Hips
{
	OFFSET 0.000000 0.000000 0.000000
	CHANNELS 6 Xposition Yposition Zposition Xrotation Yrotation Zrotation
	JOINT LeftUpLeg_virtual
	{
		OFFSET 0.000000 0.000000 0.000000
		CHANNELS 3 Xrotation Yrotation Zrotation
		JOINT LeftUpLeg
		{
			OFFSET 11.394100 -6.187798 -0.413800
			CHANNELS 3 Xrotation Yrotation Zrotation
			JOINT LeftLeg
			{
				OFFSET 0.430247 -32.302673 3.732800
				CHANNELS 3 Xrotation Yrotation Zrotation
				JOINT LeftFoot
				{
					OFFSET -0.430247 -48.264931 -6.423300
					CHANNELS 3 Xrotation Yrotation Zrotation
					JOINT LeftToeBase
					{
						OFFSET 4.230900 -16.068199 23.438400
						CHANNELS 3 Xrotation Yrotation Zrotation
						JOINT LeftToe_End
						{
							OFFSET 4.510700 0.695400 19.974600
							CHANNELS 3 Xrotation Yrotation Zrotation
							End Site
							{
								OFFSET 0 0 0
							}
						}
					}
				}
			}
		}
	}
	JOINT RightUpLeg_virtual
	{
		OFFSET 0.000000 0.000000 0.000000
		CHANNELS 3 Xrotation Yrotation Zrotation
		JOINT RightUpLeg
		{
			OFFSET -11.333700 -6.187798 -0.413800
			CHANNELS 3 Xrotation Yrotation Zrotation
			JOINT RightLeg
			{
				OFFSET -0.430392 -32.302628 3.733000
				CHANNELS 3 Xrotation Yrotation Zrotation
				JOINT RightFoot
				{
					OFFSET 0.430392 -48.264973 -6.423500
					CHANNELS 3 Xrotation Yrotation Zrotation
					JOINT RightToeBase
					{
						OFFSET -4.230900 -16.068199 23.438400
						CHANNELS 3 Xrotation Yrotation Zrotation
						JOINT RightToe_End
						{
							OFFSET -4.510700 0.695400 19.974600
							CHANNELS 3 Xrotation Yrotation Zrotation
							End Site
							{
								OFFSET 0 0 0
							}
						}
					}
				}
			}
		}
	}
	JOINT Spine_virtual
	{
		OFFSET 0.000000 0.000000 0.000000
		CHANNELS 3 Xrotation Yrotation Zrotation
		JOINT Spine
		{
			OFFSET -0.002400 12.777504 0.315300
			CHANNELS 3 Xrotation Yrotation Zrotation
			JOINT Spine1
			{
				OFFSET -0.002067 5.816869 0.032633
				CHANNELS 3 Xrotation Yrotation Zrotation
				JOINT Spine1_split
				{
					OFFSET -0.002067 5.816869 0.032633
					CHANNELS 3 Xrotation Yrotation Zrotation
					JOINT Spine2
					{
						OFFSET -0.002067 5.816869 0.032633
						CHANNELS 3 Xrotation Yrotation Zrotation
						JOINT Neck_virtual
						{
							OFFSET 0.000000 0.000000 0.000000
							CHANNELS 3 Xrotation Yrotation Zrotation
							JOINT Neck
							{
								OFFSET -0.003700 21.199493 -0.826900
								CHANNELS 3 Xrotation Yrotation Zrotation
								JOINT Head
								{
									OFFSET 0.000000 20.442200 4.834800
									CHANNELS 3 Xrotation Yrotation Zrotation
									JOINT HeadTop_End
									{
										OFFSET 0.000000 34.668396 4.968400
										CHANNELS 3 Xrotation Yrotation Zrotation
										End Site
										{
											OFFSET 0 0 0
										}
									}
								}
							}
						}
						JOINT LeftShoulder_virtual
						{
							OFFSET 0.000000 0.000000 0.000000
							CHANNELS 3 Xrotation Yrotation Zrotation
							JOINT LeftShoulder
							{
								OFFSET 3.288150 8.794197 -1.372250
								CHANNELS 3 Xrotation Yrotation Zrotation
								JOINT LeftShoulder_split
								{
									OFFSET 3.288150 8.794197 -1.372250
									CHANNELS 3 Xrotation Yrotation Zrotation
									JOINT LeftArm
									{
										OFFSET 11.953299 -2.279007 -0.146200
										CHANNELS 3 Xrotation Yrotation Zrotation
										JOINT LeftForeArm
										{
											OFFSET 18.448900 0.000000 0.000000
											CHANNELS 3 Xrotation Yrotation Zrotation
											JOINT LeftHand
											{
												OFFSET 29.527798 0.000000 0.000000
												CHANNELS 3 Xrotation Yrotation Zrotation
												End Site
												{
													OFFSET 0 0 0
												}
											}
										}
									}
								}
							}
						}
						JOINT RightShoulder_virtual
						{
							OFFSET 0.000000 0.000000 0.000000
							CHANNELS 3 Xrotation Yrotation Zrotation
							JOINT RightShoulder
							{
								OFFSET -3.249400 8.794197 -1.372250
								CHANNELS 3 Xrotation Yrotation Zrotation
								JOINT RightShoulder_split
								{
									OFFSET -3.249400 8.794197 -1.372250
									CHANNELS 3 Xrotation Yrotation Zrotation
									JOINT RightArm
									{
										OFFSET -11.953299 -2.279007 -0.146200
										CHANNELS 3 Xrotation Yrotation Zrotation
										JOINT RightForeArm
										{
											OFFSET -18.448900 0.000000 0.000000
											CHANNELS 3 Xrotation Yrotation Zrotation
											JOINT RightHand
											{
												OFFSET -29.527802 0.000000 0.000000
												CHANNELS 3 Xrotation Yrotation Zrotation
												End Site
												{
													OFFSET 0 0 0
												}
											}
										}
									}
								}
							}
						}
					}
				}
			}
		}
	}
}
MOTION
Frames: 11
Frame Time: 0.03333333
-2.074009 87.073334 0.063553 0.000000 0.000000 0.000000 3.660625 58.074401 -9.643129 -10.829999 12.716897 17.360188 48.060742 -7.699960 15.803731 -17.959363 0.557701 -14.407649 -13.104539 -1.801548 -0.687229 0.000000 0.000000 0.000000 4.904049 59.867947 -10.428622 -29.473851 2.997594 -21.325261 26.911768 8.728170 -2.880163 -3.842648 10.261359 10.262112 -7.410499 -1.823723 -0.615301 0.000000 0.000000 0.000000 5.992428 60.843161 -9.189929 1.883684 -3.980755 -0.777144 2.742378 -0.762572 -0.373151 1.020836 -0.690618 0.267659 0.000000 0.000000 0.000000 1.478711 -1.235857 -0.041281 -6.070188 -10.723129 -1.618030 -2.634407 -40.976972 5.631252 0.000000 0.000000 0.000000 1.320531 -1.064442 -0.388808 0.480968 -8.489569 -9.110164 -3.180983 -0.023114 -1.945394 3.231288 -46.111823 -46.533246 174.583173 -73.181659 173.482939 0.000000 0.000000 0.000000 2.309406 -0.887953 -0.428887 -0.066591 -2.045966 8.605753 -2.940834 6.871825 -0.371152 -22.369742 -6.992714 46.811135 -178.535940 65.378584 178.243157 0.000000 0.000000 0.000000 
-2.112759 90.709015 -0.059040 0.000000 0.000000 0.000000 5.131467 56.800608 -10.799299 -11.448215 10.390119 18.173993 43.319857 -4.796502 13.425743 -11.743780 1.505897 -11.758684 -9.520450 -1.116382 -3.722208 0.000000 0.000000 0.000000 6.353415 56.964877 -11.234169 -28.282172 1.840239 -20.605373 22.463741 10.239167 -2.702521 -0.721081 12.417634 14.663216 -10.155214 -0.703226 -1.854855 0.000000 0.000000 0.000000 7.760231 57.742378 -10.502141 0.960398 -3.996981 -0.034134 2.480836 -0.794055 -0.294801 1.416828 -0.605735 0.167904 0.000000 0.000000 0.000000 1.755655 -1.161013 -0.055710 -5.906555 -10.606000 -1.300750 -2.266643 -40.903274 5.626657 0.000000 0.000000 0.000000 1.334499 -1.059525 -0.289802 0.481722 -8.787564 -8.307604 -3.852749 -0.814806 -0.740869 -0.138780 -46.469455 -46.800675 176.074955 -71.850435 175.227274 0.000000 0.000000 0.000000 2.385520 -0.830360 -0.316551 0.035320 -1.843431 8.414767 -3.428927 5.727978 -1.335256 -23.777273 -7.613569 45.928914 -179.142365 64.175610 178.586361 0.000000 0.000000 0.000000 
-1.613471 96.592506 -1.010384 0.000000 0.000000 0.000000 6.526580 53.758281 -11.846126 -12.979480 7.425224 19.414744 36.881690 -1.881100 10.370099 0.292527 0.934789 -10.549344 -2.578203 -0.790950 -8.703040 0.000000 0.000000 0.000000 8.135367 51.633887 -12.151157 -26.064292 1.328181 -18.561235 14.238549 11.684800 -1.970008 3.032405 14.818925 17.508075 -10.369811 0.218650 -2.247696 0.000000 0.000000 0.000000 9.265492 52.436561 -11.443752 0.148542 -3.727280 1.106606 2.265997 -0.702300 -0.288537 1.557900 -0.321891 0.130320 0.000000 0.000000 0.000000 2.153180 -0.969640 -0.115150 -5.557935 -10.003393 -0.797573 -1.606454 -39.509407 5.684527 0.000000 0.000000 0.000000 1.557986 -0.929336 -0.222574 0.512404 -8.548040 -6.975428 -3.534859 -1.234691 -0.587970 -4.859156 -46.161581 -46.786608 177.690513 -69.841717 176.919918 0.000000 0.000000 0.000000 2.447750 -0.738632 -0.314630 0.188471 -1.266286 8.085098 -3.334858 4.463483 -1.384955 -26.029955 -6.695306 43.511952 -179.048423 62.892867 178.272828 0.000000 0.000000 0.000000 
-0.638674 102.770126 -2.712177 0.000000 0.000000 0.000000 6.835010 48.497543 -12.134237 -14.419846 4.918013 20.409700 32.415477 0.666530 7.652403 14.263655 -0.905303 -9.972314 -0.359243 -0.781322 -11.732536 0.000000 0.000000 0.000000 8.848628 44.997334 -12.347869 -23.783572 0.857505 -15.695602 6.816005 11.707627 -1.118875 5.722670 15.310328 17.178460 -7.976084 0.652897 -1.847934 0.000000 0.000000 0.000000 9.651201 45.791706 -11.346380 -0.264689 -3.213108 2.209207 2.101936 -0.488546 -0.329636 1.334729 -0.212105 0.046777 0.000000 0.000000 0.000000 2.568889 -0.670850 -0.197443 -5.081037 -9.048238 -0.247147 -0.795596 -36.880184 5.699586 0.000000 0.000000 0.000000 1.904802 -0.692419 -0.193126 0.521867 -7.833315 -5.476537 -2.781883 -1.148117 -1.126151 -9.909663 -44.865361 -46.767746 179.018001 -68.039612 178.210905 0.000000 0.000000 0.000000 2.505788 -0.577304 -0.417332 0.333793 -0.333929 7.773610 -2.827680 3.824398 -0.925742 -28.249516 -4.270885 40.472071 -178.601210 62.088817 177.749212 0.000000 0.000000 0.000000 
0.527814 107.746490 -3.951336 0.000000 0.000000 0.000000 6.013918 41.972476 -11.354129 -14.794593 3.793303 20.168452 30.699238 2.849331 5.713287 23.291041 -2.745167 -8.150741 -5.119487 -0.294771 -11.530570 0.000000 0.000000 0.000000 7.855522 37.626095 -11.500840 -22.605066 -0.144108 -12.692217 3.831230 9.897555 -0.757090 6.709726 12.642000 14.089920 -5.564543 0.640590 -1.218108 0.000000 0.000000 0.000000 8.826571 39.120025 -10.243582 -0.164041 -2.502008 2.915180 2.046980 -0.152696 -0.384627 0.966406 -0.132667 -0.035928 0.000000 0.000000 0.000000 2.903623 -0.295199 -0.278374 -4.517416 -7.771421 0.191951 0.026011 -33.321925 5.589908 0.000000 0.000000 0.000000 2.297720 -0.355546 -0.214376 0.469114 -6.770311 -4.196432 -2.178223 -0.523586 -1.677383 -14.309898 -42.793164 -46.815913 179.854221 -66.989689 178.975477 0.000000 0.000000 0.000000 2.551354 -0.312980 -0.579243 0.484209 0.829882 7.718779 -2.125411 3.870702 -0.680398 -29.780096 -0.878300 37.716311 -178.103985 62.127346 177.351422 0.000000 0.000000 0.000000 
1.760836 110.480484 -4.342487 0.000000 0.000000 0.000000 4.147536 34.626307 -9.492244 -15.245730 4.393944 18.874722 32.342865 5.065278 4.324475 24.268021 -3.436525 -5.375403 -10.511478 0.382012 -10.948686 0.000000 0.000000 0.000000 5.420044 30.841658 -9.727455 -22.964177 -1.600247 -10.373552 7.218216 7.160010 -1.028634 6.164875 7.825469 9.770690 -4.570400 0.323532 -0.979783 0.000000 0.000000 0.000000 6.963360 33.377437 -8.379599 0.350151 -1.683240 3.067367 2.092235 0.285623 -0.424463 0.703971 -0.235576 -0.174196 0.000000 0.000000 0.000000 3.069398 0.096149 -0.343913 -3.971587 -6.287330 0.430065 0.768424 -29.285143 5.334379 0.000000 0.000000 0.000000 2.629680 0.045036 -0.291641 0.382005 -5.636017 -3.458291 -2.051185 0.147042 -2.190338 -16.851596 -40.118824 -46.948210 -179.825002 -66.769286 179.271265 0.000000 0.000000 0.000000 2.630673 0.041857 -0.720640 0.622955 2.059780 8.083728 -1.538704 4.047612 -0.672045 -30.157413 2.636319 35.929787 -177.855462 63.171641 177.356899 0.000000 0.000000 0.000000 
2.739320 111.305786 -4.767525 0.000000 0.000000 0.000000 2.066000 26.461900 -6.947779 -16.967749 5.339026 17.027387 35.959805 6.748804 3.597100 19.382938 -3.359141 -3.291221 -11.423899 0.919693 -10.834429 0.000000 0.000000 0.000000 2.846000 25.644835 -7.393405 -24.456414 -3.192322 -9.504826 15.727786 4.535896 -1.371803 4.858253 2.938079 6.108263 -3.449220 -0.062613 -1.150601 0.000000 0.000000 0.000000 4.654657 27.792986 -6.194202 1.071384 -0.857055 2.608116 2.220000 0.756109 -0.449096 0.767727 -0.305682 -0.050114 0.000000 0.000000 0.000000 3.044147 0.471131 -0.386243 -3.372109 -4.779695 0.446153 1.385156 -25.154451 4.983271 0.000000 0.000000 0.000000 2.869291 0.460282 -0.407727 0.311048 -4.505752 -3.385184 -2.288857 0.696366 -2.446849 -17.453848 -37.246569 -47.464976 -179.858320 -67.366006 179.311631 0.000000 0.000000 0.000000 2.791594 0.476184 -0.820559 0.735086 3.106290 8.932430 -1.230366 4.279998 -1.059594 -29.629627 5.424392 35.368444 -178.029277 65.028599 177.801149 0.000000 0.000000 0.000000 
3.210385 111.033966 -5.288998 0.000000 0.000000 0.000000 1.004680 19.080248 -4.286979 -19.734578 4.843260 15.029912 38.583278 6.593201 3.714947 13.867348 -3.458061 -3.821694 -8.023801 1.232281 -10.254910 0.000000 0.000000 0.000000 1.302733 21.659037 -4.888416 -25.995084 -4.521591 -10.263676 25.405131 2.967037 -1.610783 4.126072 -0.395578 4.157421 -1.477552 -0.243073 -1.572687 0.000000 0.000000 0.000000 2.669530 22.579770 -4.161799 1.643710 -0.103926 1.708175 2.412998 1.169787 -0.474346 0.613163 -0.415006 0.572233 0.000000 0.000000 0.000000 2.930883 0.821503 -0.398646 -2.686478 -3.277724 0.333113 1.790149 -21.226695 4.586419 0.000000 0.000000 0.000000 2.986226 0.851686 -0.533850 0.281344 -3.494428 -3.956801 -2.690245 0.737556 -2.304706 -16.044172 -34.608364 -48.201383 179.772819 -68.352189 179.093448 0.000000 0.000000 0.000000 2.941986 0.938584 -0.846807 0.846876 3.841725 10.114206 -1.126839 4.380303 -1.632454 -28.676221 7.185983 36.042403 -178.496216 67.072990 178.452298 0.000000 0.000000 0.000000 
3.286838 110.341743 -5.141258 0.000000 0.000000 0.000000 1.230378 12.917968 -1.894375 -22.868341 3.265870 13.712977 37.912034 4.673003 4.527748 11.927557 -3.912688 -7.160050 -4.356597 1.425865 -8.264052 0.000000 0.000000 0.000000 1.140058 17.650310 -2.402981 -26.646217 -5.269590 -12.315592 31.762261 2.871020 -1.994517 5.577521 -1.493259 4.446780 -0.576857 -0.068295 -1.967857 0.000000 0.000000 0.000000 1.105303 17.531419 -2.371454 1.825659 0.470866 0.653916 2.575868 1.483255 -0.497995 0.676521 -1.011930 1.069140 0.000000 0.000000 0.000000 2.797840 1.132261 -0.399794 -2.052973 -1.890342 0.215531 1.983201 -17.672199 4.235519 0.000000 0.000000 0.000000 2.893278 1.202292 -0.642878 0.270309 -2.748001 -4.947120 -3.250313 -0.044964 -1.923446 -13.332650 -31.885854 -48.971514 179.347572 -69.186135 178.928143 0.000000 0.000000 0.000000 2.984269 1.360380 -0.787981 0.933576 4.214211 11.426004 -1.216729 4.111742 -2.085790 -27.774606 8.126245 37.672144 -179.101658 68.648811 179.113897 0.000000 0.000000 0.000000 
3.021760 109.466354 -5.075771 0.000000 0.000000 0.000000 2.459998 7.247476 -0.019962 -25.184419 1.998054 13.333455 33.362510 2.544956 5.552121 12.845383 -4.476298 -10.627134 -2.890562 1.510680 -4.999105 0.000000 0.000000 0.000000 2.064181 12.993105 -0.401785 -26.084457 -5.570202 -14.909553 32.726414 4.059785 -2.465383 9.088631 -0.603717 6.462883 -2.341031 0.384099 -1.871101 0.000000 0.000000 0.000000 0.618114 12.165917 -1.158594 1.626011 0.910156 -0.239292 2.663364 1.703705 -0.533028 0.887561 -1.488828 1.277717 0.000000 0.000000 0.000000 2.669637 1.421267 -0.401772 -1.612617 -0.694032 0.091674 2.000518 -14.474561 3.991284 0.000000 0.000000 0.000000 2.633801 1.509660 -0.717280 0.259217 -2.226871 -6.024975 -3.601015 -0.977836 -1.556440 -10.538277 -28.821592 -49.476924 179.159837 -69.714962 179.085210 0.000000 0.000000 0.000000 2.874937 1.720154 -0.691760 0.991651 4.312481 12.613955 -1.419874 3.555597 -2.324074 -27.271216 8.922600 39.760959 -179.585276 69.366431 179.532451 0.000000 0.000000 0.000000 
2.758430 107.882492 -5.207626 0.000000 0.000000 0.000000 4.018526 2.191400 0.997861 -26.645630 1.912140 14.038988 27.540856 0.957857 6.505570 14.058638 -5.043783 -13.328695 -1.724377 1.488980 -2.775333 0.000000 0.000000 0.000000 3.365707 7.385614 0.830787 -25.039935 -5.464270 -17.078847 29.980139 5.743357 -2.948873 12.215830 1.295056 8.544198 -6.650384 0.833109 -1.050851 0.000000 0.000000 0.000000 1.188160 6.696904 -0.461560 1.266195 1.252788 -0.686047 2.678519 1.844604 -0.548005 0.666456 -1.759109 1.453543 0.000000 0.000000 0.000000 2.577422 1.655576 -0.417929 -1.633245 0.274894 -0.060267 1.731748 -11.458070 3.832176 0.000000 0.000000 0.000000 2.327364 1.749278 -0.738415 0.221534 -2.031530 -7.032975 -3.846675 -1.511317 -1.300664 -8.304022 -25.281184 -49.568612 179.319308 -69.611335 179.663222 0.000000 0.000000 0.000000 2.648297 2.004333 -0.584638 0.966101 4.329410 13.475156 -1.573912 2.809336 -2.113559 -27.236499 10.380462 41.807803 -179.785100 69.398205 179.621257 0.000000 0.000000 0.000000 
